<svg width="34" height="26" viewBox="0 0 34 26" fill="none" xmlns="http://www.w3.org/2000/svg">
<path d="M10.6249 20.725L3.77078 13.8709C3.59155 13.6894 3.37809 13.5454 3.14277 13.4471C2.90746 13.3488 2.65497 13.2982 2.39995 13.2982C2.14492 13.2982 1.89244 13.3488 1.65712 13.4471C1.42181 13.5454 1.20835 13.6894 1.02911 13.8709C0.847695 14.0501 0.703657 14.2635 0.605349 14.4989C0.507042 14.7342 0.456421 14.9867 0.456421 15.2417C0.456421 15.4967 0.507042 15.7492 0.605349 15.9845C0.703657 16.2198 0.847695 16.4333 1.02911 16.6125L9.23453 24.8179C9.99828 25.5817 11.232 25.5817 11.9958 24.8179L32.7541 4.07919C32.9355 3.89996 33.0796 3.6865 33.1779 3.45118C33.2762 3.21587 33.3268 2.96338 33.3268 2.70836C33.3268 2.45333 33.2762 2.20085 33.1779 1.96553C33.0796 1.73022 32.9355 1.51676 32.7541 1.33753C32.5749 1.15611 32.3614 1.01207 32.1261 0.91376C31.8908 0.815452 31.6383 0.764832 31.3833 0.764832C31.1283 0.764832 30.8758 0.815452 30.6405 0.91376C30.4051 1.01207 30.1917 1.15611 30.0125 1.33753L10.6249 20.725Z" fill="#2C5352"/>
</svg>
