<svg width="650" height="214" viewBox="0 0 650 214" fill="none" xmlns="http://www.w3.org/2000/svg">
<path d="M2 203.5L9.52222 206.007C16.0433 208.181 23.2237 206.854 28.5366 202.492L40.7999 192.425C48.1809 186.366 58.8157 186.371 66.1919 192.436L83.9706 207.054C92.135 213.767 104.113 212.968 111.314 205.23L187.662 123.184C194.232 116.124 204.905 114.758 213.041 119.935L239.453 136.743C247.812 142.062 258.806 140.46 265.299 132.975L281.869 113.873C286.849 108.132 294.654 105.71 302.009 107.622L305.835 108.617C311.636 110.125 317.808 108.952 322.651 105.421L326.621 102.526C333.915 97.2076 343.878 97.4751 350.877 103.178V103.178C359.274 110.019 371.603 108.875 378.597 100.605L429.862 39.9897C437.974 30.3984 452.816 30.5718 460.701 40.3499L463.016 43.2194C467.421 48.682 474.965 50.4704 481.354 47.5664V47.5664C487.877 44.6012 495.584 46.5335 499.937 52.2258L519.193 77.406C525.964 86.2606 538.667 87.8708 547.433 80.9857L648 2" stroke="#2C5352" stroke-width="3" stroke-linecap="round"/>
</svg>
