<svg width="650" height="174" viewBox="0 0 650 174" fill="none" xmlns="http://www.w3.org/2000/svg">
<path d="M2 164.5L11.2891 166.997C16.8277 168.486 22.739 167.525 27.5213 164.359L42.4509 154.476C49.1486 150.042 57.8492 150.045 64.5437 154.484L85.8339 168.601C93.3199 173.565 103.197 172.929 109.985 167.047L188.79 98.7515C194.959 93.4054 203.758 92.3448 211.02 96.0719L241.522 111.726C249.012 115.569 258.106 114.312 264.272 108.58L282.415 91.7131C287.172 87.2908 293.78 85.4538 300.137 86.7867L307.427 88.3154C312.3 89.3371 317.378 88.5048 321.67 85.9813L328.276 82.0965C334.842 78.2354 343.031 78.4393 349.397 82.6223L352.717 84.8042C360.494 89.9144 370.768 88.9858 377.502 82.5642L431.366 31.2034C439.226 23.7086 451.63 23.8561 459.31 31.5356L462.336 34.5621C467.314 39.5402 474.73 41.1753 481.34 38.7522V38.7522C488.113 36.2693 495.715 38.0515 500.679 43.2864L520.182 63.8542C526.758 70.7894 537.322 72.1026 545.396 66.9885L648 2" stroke="#2C5352" stroke-width="3" stroke-linecap="round"/>
</svg>
