<svg width="286" height="76" viewBox="0 0 286 76" fill="none" xmlns="http://www.w3.org/2000/svg">
<path d="M2 72.5714L3.00523 72.8403C7.36404 74.006 12.0132 73.2531 15.7814 70.7714V70.7714C21.0597 67.2951 27.9015 67.2976 33.1772 70.7778L33.6311 71.0772C39.84 75.173 48.0136 74.6477 53.647 69.7907L77.9794 48.812C84.0371 43.5891 92.6534 42.5525 99.7771 46.1895L101.042 46.8355C107.629 50.1984 115.614 49.0962 121.044 44.0746L123.036 42.2322C125.976 39.5132 130.112 38.3973 134.032 39.215V39.215C136.965 39.8268 140.067 39.3375 142.653 37.8246L143.775 37.1679C147.045 35.255 151.115 35.3561 154.286 37.429V37.429C158.162 39.9623 163.27 39.5012 166.628 36.3149L188.851 15.2335C192.611 11.6671 198.525 11.7374 202.199 15.3922L202.945 16.1344C205.124 18.3021 208.36 19.014 211.247 17.961V17.961C214.206 16.8819 217.524 17.6581 219.697 19.9381L223.685 24.1217C229.187 29.8946 237.996 30.9886 244.743 26.7369L284 2" stroke="#2C5352" stroke-width="3" stroke-linecap="round"/>
</svg>
