<svg width="26" height="26" viewBox="0 0 26 26" fill="none" xmlns="http://www.w3.org/2000/svg">
<circle cx="13" cy="13" r="12.5" stroke="#2C5352"/>
<path d="M10.6305 15.6675L8.18168 13.2188C8.11764 13.1539 8.04138 13.1025 7.95731 13.0674C7.87324 13.0322 7.78303 13.0142 7.69192 13.0142C7.60081 13.0142 7.5106 13.0322 7.42653 13.0674C7.34246 13.1025 7.2662 13.1539 7.20216 13.2188C7.13735 13.2828 7.08589 13.3591 7.05077 13.4431C7.01564 13.5272 6.99756 13.6174 6.99756 13.7085C6.99756 13.7996 7.01564 13.8898 7.05077 13.9739C7.08589 14.058 7.13735 14.1342 7.20216 14.1983L10.1337 17.1298C10.4066 17.4027 10.8474 17.4027 11.1202 17.1298L18.5365 9.7205C18.6014 9.65646 18.6528 9.5802 18.6879 9.49613C18.7231 9.41206 18.7411 9.32185 18.7411 9.23074C18.7411 9.13963 18.7231 9.04942 18.6879 8.96535C18.6528 8.88128 18.6014 8.80502 18.5365 8.74098C18.4725 8.67617 18.3962 8.62471 18.3122 8.58958C18.2281 8.55446 18.1379 8.53638 18.0468 8.53638C17.9557 8.53638 17.8655 8.55446 17.7814 8.58958C17.6973 8.62471 17.6211 8.67617 17.557 8.74098L10.6305 15.6675Z" fill="#2C5352"/>
</svg>
